<?xml version="1.0" encoding="utf-8"?>
<!-- Generator: Adobe Illustrator 26.0.2, SVG Export Plug-In . SVG Version: 6.00 Build 0)  -->
<svg version="1.1" id="Layer_1" xmlns="http://www.w3.org/2000/svg" xmlns:xlink="http://www.w3.org/1999/xlink" x="0px" y="0px"
	 viewBox="0 0 24 24" style="enable-background:new 0 0 24 24;" xml:space="preserve">
<style type="text/css">
	.st0{fill:none;stroke:#FFFFFF;}
	.st1{fill:#F5F5F5;}
</style>
<g>
	<path class="st0" d="M3.5,0.5h17c1.7,0,3,1.3,3,3v17c0,1.7-1.3,3-3,3h-17c-1.7,0-3-1.3-3-3v-17C0.5,1.8,1.8,0.5,3.5,0.5z"/>
</g>
<g>
	<path class="st1" d="M8.2,16.1c-0.3-0.4-0.5-0.9-0.5-1.3c0-1.2,1-2.2,2.2-2.2c0.2,0,0.5,0,0.7,0.1V10c-0.3,0-0.5,0-0.8,0h0
		c-2.6,0.1-4.7,2.2-4.7,4.8c0,1.3,0.5,2.5,1.4,3.4c0,0,0,0,0,0c0.9,0.9,2.1,1.5,3.4,1.5c2.7,0,4.8-2.2,4.8-4.8V9.5
		c1,0.7,2.3,1.2,3.6,1.2V8c-0.3,0-0.5,0-0.8-0.1h0c-0.8-0.2-1.4-0.6-1.9-1.1l0,0c-0.5-0.6-0.9-1.3-0.9-2.1V4.4h-0.7h-1.9v10.4
		c0,1.2-1,2.2-2.2,2.2C9.2,17,8.6,16.7,8.2,16.1"/>
</g>
</svg>
