<?xml version="1.0" encoding="utf-8"?>
<!-- Generator: Adobe Illustrator 26.0.2, SVG Export Plug-In . SVG Version: 6.00 Build 0)  -->
<svg version="1.1" id="Layer_1" xmlns="http://www.w3.org/2000/svg" xmlns:xlink="http://www.w3.org/1999/xlink" x="0px" y="0px"
	 viewBox="0 0 24 24" style="enable-background:new 0 0 24 24;" xml:space="preserve">
<style type="text/css">
	.st0{fill:none;stroke:#FFFFFF;stroke-miterlimit:10;}
	.st1{fill:#F5F5F5;}
</style>
<g>
	<path class="st0" d="M3.5,0.5h17c1.7,0,3,1.3,3,3v17c0,1.7-1.3,3-3,3h-17c-1.7,0-3-1.3-3-3v-17C0.5,1.8,1.8,0.5,3.5,0.5z"/>
</g>
<g>
	<path class="st1" d="M16.8,8.3c0.6-0.1,1.1-0.2,1.7-0.4C18.1,8.5,17.6,9,17,9.4c0,0.1,0,0.2,0,0.4c0,0.8-0.1,1.5-0.3,2.3
		c-0.2,0.8-0.6,1.5-1,2.2c-0.5,0.7-1,1.3-1.6,1.9c-0.6,0.5-1.4,1-2.3,1.3c-0.9,0.3-1.9,0.5-2.9,0.5c-1.6,0-3.1-0.4-4.4-1.3
		c0.2,0,0.4,0,0.7,0c1.3,0,2.5-0.4,3.6-1.2c-0.6,0-1.2-0.2-1.7-0.6c-0.5-0.4-0.8-0.8-1-1.4c0.2,0,0.4,0,0.5,0c0.3,0,0.5,0,0.8-0.1
		c-0.7-0.1-1.2-0.5-1.7-1C5.2,11.9,5,11.3,5,10.6v0c0.4,0.2,0.8,0.3,1.3,0.4c-0.4-0.3-0.7-0.6-0.9-1C5.1,9.5,5,9,5,8.5
		C5,8,5.1,7.5,5.4,7C6.1,7.9,7,8.6,8,9.2c1,0.5,2.1,0.8,3.3,0.9c0-0.2-0.1-0.4-0.1-0.7c0-0.8,0.3-1.5,0.8-2s1.2-0.8,2-0.8
		c0.8,0,1.5,0.3,2.1,0.9c0.6-0.1,1.3-0.4,1.8-0.7C17.9,7.4,17.4,7.9,16.8,8.3L16.8,8.3z"/>
</g>
</svg>
